<?xml version="1.0" encoding="UTF-8"?>
<svg xmlns="http://www.w3.org/2000/svg">

<symbol id="logo-wordmark" viewBox="0 0 360 97.49">

  <g>
    <g id="Layer_1">
	<g>
      <path d="M300.1,68.75c-.43,0-.78,0-1.13,0-1.29-.02-2.59-.06-3.88-.05-1.32,0-2.63.08-3.95.08-1.08,0-2.16-.06-3.24-.08-.76,0-.75,0-.75.77,0,2.31-.04,4.61-.04,6.92,0,2.13.06,4.26.07,6.4,0,1.73-.04,3.45-.05,5.18,0,1.35,0,2.69,0,4.04,0,1.24,0,2.48,0,3.72,0,.15,0,.31-.04.45-.14.61-.29.77-.94.79-.91.03-1.83,0-2.75,0-.38,0-.76.05-1.14.03-.32-.02-.64-.09-.95-.18-.24-.07-.35-.27-.34-.53,0-1.02,0-2.03.02-3.05.03-1.15.04-2.29-.03-3.43-.08-1.33-.27-2.66-.1-4.01.06-.51-.06-1.05-.04-1.57.01-.43.14-.85.14-1.27,0-.83-.05-1.66-.06-2.49-.03-1.31-.05-2.63-.06-3.94,0-.95.04-1.9.03-2.85,0-1.16-.04-2.32-.07-3.48-.01-.43-.06-.85-.09-1.28-.62-.37-1.28-.2-1.89-.21-2.5-.02-5.01.03-7.51.04-1.29,0-2.58-.03-3.87-.03-1.62,0-3.23.05-4.85.04-1.34,0-2.68-.07-4.02-.08-1.26-.01-2.52,0-3.78.03-.62.02-.61.05-.75.63-.13.54-.29,1.07-.45,1.6-.33,1.09-.67,2.17-1,3.26-.14.49-.23.99-.37,1.47-.21.75-.46,1.5-.67,2.25-.35,1.23-.69,2.47-1.05,3.71-.33,1.14-.67,2.29-1,3.43-.56,1.92-1.11,3.84-1.67,5.76-.42,1.45-.85,2.91-1.27,4.36-.19.64-.27.73-.94.75-1.29.05-2.58.06-3.87.11-.4.01-.81.06-1.2.16-.36.09-.6,0-.77-.3-.15-.26-.3-.54-.39-.82-.19-.65-.39-1.31-.51-1.98-.15-.88-.46-1.69-.77-2.52-.3-.81-.72-1.6-.81-2.51-.07-.66-.47-1.28-.69-1.92-.18-.5-.33-1.01-.47-1.52-.32-1.15-.57-2.31-.95-3.44-.68-2.04-1.39-4.07-1.98-6.13-.4-1.41-.95-2.78-1.42-4.17-.18-.55-.33-1.11-.48-1.67-.09-.34-.26-.53-.64-.52-.41.01-.81.01-1.22,0-1.79,0-3.58-.03-5.38-.03-2.03,0-4.06,0-6.09.01-1.32,0-2.64.02-3.96.06-.63.02-.68.07-.5.66.31,1.06.66,2.11.98,3.17.52,1.69,1.05,3.38,1.57,5.07.33,1.09.62,2.19.95,3.27.44,1.45.91,2.89,1.37,4.33.41,1.3.92,2.58,1.22,3.91.45,2.03,1.25,3.96,1.8,5.96.26.95.02,1.12-.57,1.63-.12.1-.33.15-.49.14-.71-.03-1.41-.08-2.11-.13-.48-.03-.96-.08-1.44-.11-.2-.01-.4,0-.6.04-.78.14-1.1-.03-1.34-.78-.42-1.3-.8-2.61-1.22-3.91-.14-.43-.3-.86-.48-1.28-.38-.89-.54-1.83-.75-2.76-.05-.25-.09-.53-.24-.72-.43-.57-.38-1.3-.66-1.92-.2-.46-.28-.97-.42-1.45-.03-.12-.08-.24-.11-.36-.17-.63-.26-1.29-.5-1.89-.8-1.98-1.13-4.1-1.8-6.11-.39-1.17-.82-2.32-1.17-3.5-.26-.86-.43-1.75-.63-2.64-.13-.57-.14-.63-.74-.65-1.12-.04-2.24-.02-3.35-.05-1.14-.03-2.28-.11-3.42-.11-1.04,0-2.07.08-3.11.09-.76,0-1.52-.08-2.28-.08-.6,0-1.21.07-1.82.08-1.98.01-3.97.03-5.95.01-1.58-.01-3.16-.09-4.74-.09-1.74,0-3.47.05-5.21.07-.89,0-1.78-.02-2.66-.03-.83,0-1.11.25-1.3,1.05-.27,1.08-.58,2.14-.89,3.21-.23.8-.5,1.59-.73,2.4-.45,1.56-.89,3.12-1.34,4.68-.38,1.31-.8,2.61-1.14,3.94-.66,2.55-1.36,5.08-2.18,7.58-.42,1.29-.62,2.66-.95,3.98-.08.33-.25.65-.4.96-.05.1-.18.22-.29.23-.49.07-.99.16-1.48.14-.76-.03-1.51-.11-2.26-.21-.32-.04-.66-.11-.93-.27-.2-.13-.39-.41-.43-.65-.05-.31.03-.66.1-.98.09-.39.24-.77.34-1.15.28-1.12.53-2.25.81-3.38.08-.32.23-.62.31-.93.51-1.89.91-3.81,1.6-5.65.26-.7.36-1.46.57-2.19.28-.94.6-1.87.89-2.81.11-.34.2-.68.31-1.02.17-.5.34-1,.52-1.5.05-.14.14-.29.14-.43-.03-1.15.58-2.13.89-3.18.27-.92.63-1.82.87-2.75.07-.28-.08-.61-.15-1.01-.38,0-.78,0-1.17,0-.55,0-1.1,0-1.64,0-1.78,0-3.55,0-5.33,0-1.28,0-2.56-.06-3.83-.06-1.29,0-2.58.07-3.87.06-.98,0-1.97-.06-2.95-.09-.13,0-.25-.03-.38-.03-.52.04-1.04.08-1.67.13-.03.17-.1.41-.1.65,0,1.19.04,2.38.05,3.56.01,1.09,0,2.18.03,3.27.02.99.09,1.97.12,2.96.01.45-.08.91-.07,1.36.03,1.18.1,2.36.13,3.55.04,1.39.06,2.78.07,4.17.01,1.85,0,3.7.01,5.55,0,.66.04,1.32.04,1.98,0,.63-.34.95-.95.95-1.63-.02-3.25-.04-4.88-.05-1.15,0-1.2-.02-1.26-1.18-.04-.78.04-1.56.05-2.34.01-1.15,0-2.31.01-3.46,0-.78.01-1.57.02-2.35.02-2.1.04-4.21.06-6.31.02-2,.02-4.01.04-6.01.01-1.7.04-3.39.04-5.09,0-.43-.07-.85-.12-1.33-.26-.06-.5-.16-.74-.16-1.68.02-3.36.08-5.05.1-1.09.01-2.18-.01-3.27-.01-2.16,0-4.32.01-6.48.03-.17,0-.33.08-.58.15.11.3.18.57.31.8,1.06,1.79,1.89,3.68,2.76,5.56.69,1.5,1.37,3,1.98,4.52.62,1.55,1.16,3.13,1.69,4.71.41,1.22.78,2.45,1.1,3.7.33,1.27.63,2.55.88,3.83.28,1.41.5,2.84.74,4.26.09.54-.04.76-.61.82-.78.08-1.57.09-2.35.14-.58.03-1.17.07-1.75.08-.3,0-.6-.06-.92-.09-.17-.88-.3-1.72-.49-2.55-.37-1.57-.75-3.14-1.16-4.7-.62-2.38-1.6-4.63-2.38-6.96-.58-1.73-1.22-3.44-2.06-5.06-.86-1.67-1.72-3.33-2.66-4.95-.7-1.22-1.52-2.36-2.28-3.54-.7-1.08-1.34-2.2-2.08-3.25-1.2-1.69-2.37-3.41-3.86-4.87-.72-.71-1.38-1.48-2.09-2.19-1.53-1.51-3.03-3.07-4.82-4.29-.87-.6-1.7-1.28-2.56-1.89-.47-.34-.98-.62-1.47-.94-1.08-.71-2.13-1.46-3.22-2.15-.64-.41-1.31-.76-2-1.09-.61-.29-.71-.23-1.19.25-1.34,1.35-2.71,2.65-4.2,3.83-.65.51-1.2,1.15-1.84,1.69-.79.67-1.6,1.32-2.45,1.92-.41.29-.54.63-.54,1.09,0,1.26.01,2.52.01,3.79,0,3.68,0,7.37-.01,11.05,0,2.57-.04,5.13-.05,7.7,0,1.5.03,2.99.03,4.49,0,1.95-.03,3.9-.04,5.84,0,1.58,0,3.17-.02,4.75,0,.68-.04,1.36-.09,2.04-.03.41-.19.53-.68.51-1.31-.03-2.63-.08-3.94-.12-.23,0-.46-.01-.68,0-.88.03-1.35-.38-1.37-1.26-.03-2.15-.04-4.29-.06-6.44-.01-1.45-.06-2.89-.05-4.34,0-2.01.06-4.03.06-6.04,0-1.76-.04-3.52-.05-5.29-.01-1.45-.01-2.89,0-4.34,0-.8,0-.85-.77-.86-1.7,0-3.4.01-5.1.02-.99,0-1.98,0-3.02,0-.16.42-.32.78-.43,1.16-.73,2.45-1.61,4.83-2.77,7.12-.93,1.83-1.9,3.64-2.98,5.38-1.13,1.83-2.22,3.7-3.65,5.31-1.04,1.17-2.22,2.2-3.35,3.29-.11.1-.24.19-.33.31-1.08,1.31-2.48,2.21-3.93,3.05-.22.13-.44.25-.66.38-1.93,1.18-4.03,1.88-6.27,2.2-.77.11-1.54.26-2.32.27-.83.02-1.65-.13-2.48-.14-2.21-.03-4.32-.61-6.4-1.25-1.32-.4-2.6-1.01-3.82-1.67-1.19-.64-2.29-1.46-3.41-2.22-1.35-.91-2.53-2.03-3.67-3.18-.8-.8-1.54-1.68-2.22-2.59-1.03-1.38-2-2.8-2.96-4.23-.35-.52-.62-1.11-.88-1.68-.61-1.33-1.21-2.67-1.77-4.02-.61-1.47-1.18-2.95-1.74-4.44-.22-.59-.35-1.22-.54-1.82-.23-.7-.38-.81-1.1-.81-1.64.02-3.29.06-4.93.07-1.32,0-2.64-.04-3.96-.04-.44,0-.66-.22-.79-.58-.08-.24-.15-.5-.14-.74.01-.98.06-1.97.08-2.95.01-.65-.02-1.3,0-1.95.01-.42.09-.85.14-1.33h9.03c-.13-.98-.29-1.89-.37-2.81-.1-1.21-.15-2.43-.22-3.64-.07-1.18-.19-2.37-.19-3.55,0-1.56.09-3.13.14-4.69,0-.05.01-.1.02-.15.12-1.69.24-3.39.37-5.08.04-.56.13-1.11.21-1.66.27-1.75.58-3.49.82-5.25.4-2.82,1.32-5.5,2.18-8.2.58-1.8,1.23-3.58,2.08-5.28.69-1.38,1.32-2.79,2.07-4.14.54-.96,1.22-1.85,1.88-2.74,1.16-1.57,2.31-3.15,3.55-4.65,1.25-1.5,2.63-2.87,4.21-4.05,1.04-.77,2.09-1.49,3.23-2.11,1.84-.99,3.79-1.66,5.87-2.01,1.64-.28,3.27-.38,4.93-.32,1.78.07,3.52.4,5.24.81.27.06.5.25.76.35.83.29,1.67.54,2.49.86.42.16.79.43,1.18.66.11.06.2.17.31.21,1.17.41,2.05,1.27,3.06,1.92.3.19.62.33.9.54.32.24.62.51.9.79,1.04,1.02,2.11,2.03,3.1,3.1.75.81,1.47,1.67,2.09,2.59,1.3,1.93,2.59,3.87,3.75,5.88.85,1.46,1.5,3.03,2.23,4.56,1.03,2.18,1.64,4.52,2.32,6.82.27.89.38,1.83.54,2.75.3,1.69.67,3.38.87,5.09.25,2.09.35,4.19.51,6.29.03.33,0,.66.05.99.18,1.31.1,2.62.03,3.93-.05.83,0,1.67-.06,2.5-.12,1.48-.28,2.96-.44,4.44-.11,1.01-.24,2.01-.38,3.02-.09.64-.23,1.28-.37,2.04.62.04,1.13.1,1.64.1.7,0,1.4-.05,2.11-.06.93,0,1.87,0,2.8.03.61.02.7-.04.7-.67,0-.74,0-1.47,0-2.21,0-1.97,0-3.95,0-5.92,0-2.25-.02-4.51-.03-6.76,0-3.24,0-6.48,0-9.72,0-3.27,0-6.54,0-9.82,0-3.29,0-6.59,0-9.88,0-3.93.03-7.87.03-11.8,0-1.14-.02-2.29-.03-3.43,0-.62.1-.77.71-.84.5-.06,1.01-.07,1.52-.07,1.37,0,2.74.02,4.11.04.23,0,.45.06.74.1,0,.64,0,1.26,0,1.88.01.75.05,1.51.05,2.26,0,.78-.04,1.56-.04,2.34,0,1.71,0,3.42,0,5.13-.02,2.35-.05,4.71-.07,7.06,0,.66.07,1.31.07,1.97,0,.95-.07,1.9-.09,2.85-.01.7-.01,1.41,0,2.12.04,1.45.11,2.9.13,4.36,0,.55-.11,1.11-.11,1.67.01,1.07.13,2.15.09,3.22-.1,2.9.2,5.8.13,8.7-.02.73-.05,1.47-.06,2.2,0,.37.01.75.06,1.12.07.52.36.72.84.49.47-.22.93-.5,1.3-.86,1.13-1.09,2.21-2.22,3.31-3.34,1.35-1.36,2.76-2.66,4.02-4.1,1.42-1.64,2.73-3.38,3.74-5.32.5-.96,1.15-1.84,1.66-2.79.88-1.64,1.67-3.33,2.39-5.06,1.05-2.51,1.72-5.12,2.44-7.72.49-1.77.82-3.58,1.18-5.38.43-2.15.61-4.31.71-6.48.07-1.38.19-2.76.26-4.14.04-.72,0-1.44,0-2.22.75-.04,1.4-.07,2.06-.1.96-.05,1.93-.06,2.88-.15.97-.09,1.16.03,1.3.96.1.59.08,1.17,0,1.76-.12.98-.14,1.97-.22,2.96-.12,1.44-.24,2.87-.41,4.3-.17,1.41-.4,2.81-.59,4.21-.28,2.06-.83,4.06-1.42,6.05-.38,1.26-.7,2.53-1.13,3.77-.41,1.19-.95,2.34-1.41,3.52-.57,1.49-1.27,2.92-2.05,4.32-.56,1.01-.99,2.1-1.52,3.13-.66,1.28-1.46,2.48-2.29,3.65-1.02,1.43-2.08,2.84-3.12,4.26-.07.1-.12.21-.2.35.11.1.19.21.29.26,2.03.89,3.83,2.18,5.66,3.4,2.01,1.35,3.79,2.96,5.61,4.53,1.57,1.36,3.05,2.84,4.46,4.36,1.44,1.56,2.77,3.22,4.12,4.86.27.32.6.38.95.38,2.34,0,4.67,0,7.01,0,1.83,0,3.66.03,5.49.03,2.42,0,4.83,0,7.25,0,.23,0,.45,0,.7,0,.24-.71.17-1.39.16-2.07,0-1.4-.04-2.79-.05-4.19-.02-1.88-.02-3.76-.03-5.64,0-1.39,0-2.78-.03-4.17-.02-1.09-.09-2.18-.11-3.27-.02-1.29,0-2.59-.02-3.88-.01-.76-.07-1.52-.08-2.27-.03-1.95-.03-3.9-.07-5.85-.02-1.05-.12-2.1-.14-3.16-.03-1.59.01-3.18-.01-4.77-.02-1.69-.1-3.39-.13-5.08-.03-2.05-.01-4.11-.04-6.17-.01-.88-.09-1.77-.1-2.65-.01-.48.05-.96.05-1.44,0-.49-.06-.51-.52-.49-.34.01-.69-.04-1.03-.06-.2-.01-.4-.04-.6-.04-1.72.02-3.44.07-5.17.07-.63,0-1.26.25-1.88-.05-2.2.24-4.42.08-6.63.13-1.2.03-2.41-.13-3.62-.23-.47-.04-.69-.24-.68-.65.05-1.64-.03-3.29.58-4.94.4-.05.82-.13,1.25-.13.98,0,1.95.04,2.93.03,1.09,0,2.18-.06,3.27-.07.99,0,1.97.04,2.96.05,2.46.03,4.92.08,7.37.09,2.12,0,4.24-.04,6.36-.06,1.36-.01,2.72-.02,4.07-.04,1.78-.03,3.55-.08,5.33-.11,1.64-.02,3.28,0,4.92-.02,1.13-.01,2.27-.07,3.4-.07,2-.01,4,0,6.01,0,.14,0,.28.06.44.1.04,1.52.1,3,.13,4.49.01.78-.28,1.05-1.04,1.06-2.07.02-4.14.03-6.2.06-.43,0-.86.07-1.29.11-.15.01-.32.07-.45.02-.66-.27-1.35-.02-2.01-.13-.05,0-.11-.02-.15,0-.59.22-1.18.12-1.78.02-.12-.02-.28-.01-.37.05-.31.21-.58.18-.91.01-.24-.12-.49-.06-.77.02-.5.14-1.05.09-1.58.07-.94-.03-1.87-.13-2.81-.13-.93,0-1.87.12-2.87.19,0,1.19,0,2.34,0,3.5,0,1.45,0,2.89.02,4.34,0,1.24,0,2.49.02,3.73.02,1.61.06,3.23.08,4.84.03,2.5.05,5.01.08,7.51.02,1.95.04,3.91.05,5.86,0,1.46,0,2.93.02,4.39.02,1.41.09,2.83.1,4.24.02,2.38,0,4.77.02,7.15,0,1.28.07,2.57.09,3.85.03,1.59.05,3.17.07,4.76,0,.03,0,.05,0,.08-.04.95.12,1.06,1.09,1.05,1.26-.02,2.51.06,3.77.06,1.01,0,2.02-.05,3.03-.08.45-.01.9-.01,1.35-.02,1.09,0,2.17-.02,3.26,0,.93.01,1.87.08,2.8.08,1.44,0,2.88-.04,4.32-.03.99,0,1.97.04,2.96.06.23,0,.47.04.68-.03.17-.05.38-.19.44-.34.26-.74.49-1.48.71-2.24.33-1.17.63-2.35.98-3.51.29-.99.65-1.97.95-2.96.3-1.02.57-2.05.85-3.07.17-.61.28-1.24.51-1.83.37-.97.56-1.99.85-2.98.41-1.38.85-2.75,1.28-4.13.09-.28.14-.57.23-.86.59-2,1.2-4,1.78-6,.39-1.36.72-2.74,1.1-4.1.43-1.53.88-3.06,1.33-4.59.6-2.09,1.22-4.17,1.81-6.26.28-.97.49-1.96.76-2.93.42-1.51.87-3.01,1.3-4.51.37-1.29.67-2.6,1.12-3.86.45-1.24.71-2.52,1.04-3.79.23-.88.57-1.73.88-2.58.12-.32.35-.42.72-.41,1.37.05,2.74.2,4.11-.01.35-.05.71,0,1.13,0,.27.87.53,1.74.79,2.6.33,1.09.66,2.18.99,3.27.15.51.3,1.01.45,1.52.58,1.94,1.15,3.88,1.73,5.82.42,1.41.85,2.81,1.29,4.21.6,1.91,1.22,3.8,1.8,5.71.68,2.23,1.34,4.46,2.02,6.69.23.75.52,1.47.75,2.22.4,1.3.76,2.61,1.16,3.92.45,1.47,1.06,2.91,1.35,4.41.36,1.85,1.2,3.54,1.52,5.39.19,1.09.67,2.12,1.01,3.18.36,1.16.7,2.32,1.06,3.48.29.94.59,1.89.87,2.83.38,1.26.75,2.52,1.12,3.78.14.48.27.97.42,1.45.18.6.33.72.98.72,2.49,0,4.98-.02,7.47-.01,1.21,0,2.43.07,3.64.07,1.12,0,2.23-.04,3.35-.06.56,0,1.12.01,1.68,0,.21,0,.43-.04.76-.07-.28-.86-.52-1.62-.77-2.38-.68-2.12-1.36-4.23-2.06-6.35-.52-1.59-1.09-3.16-1.6-4.75-.42-1.28-.78-2.57-1.18-3.85-.26-.84-.55-1.66-.82-2.5-.42-1.27-.83-2.54-1.25-3.81-.66-1.96-1.33-3.92-1.98-5.89-.41-1.25-.77-2.52-1.19-3.77-.42-1.27-.88-2.52-1.31-3.79-.3-.91-.57-1.83-.87-2.74-.55-1.66-1.13-3.31-1.67-4.97-.43-1.3-.82-2.61-1.24-3.91-.76-2.36-1.54-4.71-2.31-7.07-.4-1.23-.77-2.46-1.18-3.68-.14-.42-.35-.82-.57-1.33.31-.09.51-.19.71-.2,1.06-.06,2.13-.12,3.2-.14.5,0,1,.09,1.5.12.17.01.35-.04.53-.06.62-.07.93.16,1.11.75.49,1.58,1.01,3.16,1.51,4.74.1.31.15.65.27.95.25.58.59,1.12.79,1.71.34,1,.6,2.03.91,3.03.19.59.44,1.16.64,1.75.06.16.1.34.1.51,0,.45.15.83.43,1.19.16.21.27.49.34.75.15.58.27,1.17.4,1.76.02.07.04.15.08.21.75,1.24.82,2.69,1.24,4.03.24.77.55,1.52.81,2.28.17.5.31,1.01.45,1.51.4,1.36.77,2.72,1.2,4.07.5,1.57,1.06,3.11,1.57,4.67.52,1.58,1,3.17,1.52,4.75.43,1.32.9,2.64,1.35,3.96.42,1.25.81,2.5,1.22,3.75.62,1.85,1.25,3.69,1.87,5.53.28.84.52,1.69.8,2.53.48,1.43.99,2.86,1.47,4.29.3.91.57,1.83.86,2.74.12.39.23.78.36,1.16.37,1.15.74,2.29,1.13,3.43.33.98.7,1.95,1.02,2.93.57,1.73,1.09,3.47,1.66,5.19.45,1.37.96,2.71,1.42,4.08.36,1.08.67,2.17,1.02,3.25.14.42.32.83.63,1.25.25-.78.5-1.56.74-2.35.5-1.65.98-3.29,1.47-4.94.55-1.84,1.1-3.69,1.65-5.53.69-2.3,1.4-4.6,2.09-6.9.2-.65.35-1.32.55-1.97.43-1.43.87-2.85,1.3-4.27.26-.87.5-1.74.77-2.61.45-1.47.92-2.94,1.37-4.41.4-1.3.8-2.6,1.19-3.91.39-1.31.76-2.61,1.15-3.92.62-2.11,1.25-4.22,1.88-6.32.7-2.3,1.41-4.6,2.1-6.9.6-2.01,1.18-4.02,1.77-6.03.67-2.28,1.33-4.57,2.01-6.84.41-1.38.87-2.75,1.29-4.13.18-.6.31-1.22.48-1.82.74-2.55,1.48-5.1,2.23-7.65.2-.68.42-1.35.62-2.02.16-.53.51-.84,1.03-.83,1.8.03,3.59.08,5.48.13-.07.32-.09.54-.17.74-.7,1.7-1.12,3.49-1.69,5.23-.46,1.41-.79,2.87-1.2,4.29-.51,1.77-1.06,3.52-1.57,5.29-.36,1.24-.67,2.49-1.01,3.74-.1.36-.25.7-.36,1.06-.48,1.58-.97,3.17-1.43,4.76-.29,1.02-.5,2.06-.79,3.08-.2.7-.46,1.38-.68,2.08-.17.52-.33,1.05-.48,1.58-.43,1.55-.86,3.11-1.28,4.66-.39,1.41-.76,2.82-1.17,4.22-.67,2.26-1.37,4.5-2.04,6.76-.38,1.28-.68,2.58-1.06,3.87-.71,2.43-1.44,4.84-2.15,7.27-.29.99-.54,1.99-.83,3.07h24.51c0-.54,0-1.03,0-1.53.02-1.38.1-2.77.04-4.15-.04-.77.18-1.54-.1-2.31-.1-.29-.03-.64-.02-.97.03-1.01-.18-2.01.11-3.02.11-.38-.07-.85-.08-1.27-.02-1.63.03-3.27-.07-4.9-.05-.87.04-1.7.12-2.56.07-.85-.13-1.71-.15-2.57-.04-1.72-.06-3.44-.04-5.16.02-1.92.02-3.84-.06-5.76-.07-1.67.02-3.34.02-5.01,0-2.31-.03-4.62-.05-6.92-.01-1.75-.02-3.49-.03-5.24-.02-2.29-.04-4.58-.06-6.87,0-.73-.04-1.47-.03-2.2,0-.73.28-.91,1.03-.91,1.44,0,2.89-.08,4.33-.12.13,0,.25-.02.38-.02.6,0,.84.19.86.8.04,1.36.05,2.72.08,4.08.02.6.08,1.2.12,1.81.01.15.02.3.02.45-.04,1.69-.17,3.39-.12,5.07.06,1.69.03,3.38.04,5.07.01,2.2.08,4.41.07,6.61,0,1.41-.11,2.82-.11,4.23,0,1.41.09,2.82.11,4.23.02,1.62,0,3.25,0,4.87,0,1.19.06,2.37.05,3.56-.03,2.15-.1,4.3-.14,6.45,0,.42.08.85.08,1.27,0,2.18,0,4.36,0,6.54,0,1.22.02,2.44.02,3.65,0,.91,0,1.82,0,2.79.63.03,1.21.09,1.78.09,3.28,0,6.55,0,9.83,0,.78,0,1.57.06,2.35.06.4,0,.82-.03,1.2-.15.19-.06.37-.33.44-.54.28-.78.52-1.58.75-2.38.33-1.14.62-2.3.96-3.44.3-1.02.67-2.02.97-3.03.31-1.04.57-2.1.86-3.15.18-.66.38-1.31.56-1.97.24-.85.48-1.69.72-2.54.29-1,.61-1.99.9-2.98.27-.94.51-1.88.79-2.82.32-1.08.67-2.16.98-3.24.44-1.53.86-3.06,1.29-4.59.16-.56.32-1.12.49-1.68.44-1.51.87-3.01,1.31-4.52.61-2.11,1.23-4.22,1.83-6.33.26-.92.48-1.86.74-2.78.43-1.56.89-3.11,1.33-4.66.37-1.29.67-2.6,1.12-3.86.44-1.22.7-2.48,1.03-3.72.24-.9.58-1.78.89-2.66.1-.28.31-.42.65-.41,1.42.07,2.84.2,4.26-.01.32-.05.66,0,1.05,0,.27.89.53,1.75.8,2.62.33,1.09.67,2.18,1,3.27.23.77.43,1.56.67,2.33.58,1.86,1.18,3.71,1.75,5.57.35,1.14.64,2.29.99,3.43.59,1.93,1.22,3.86,1.82,5.79.44,1.4.85,2.81,1.29,4.21.49,1.59,1.01,3.18,1.5,4.77.54,1.76,1.07,3.53,1.61,5.29.31,1.01.63,2.02.94,3.02.03.1.06.2.07.3.03.85.44,1.6.66,2.39.14.49.3.97.45,1.45.5,1.64,1.02,3.29,1.51,4.93.49,1.62.94,3.26,1.44,4.88.55,1.81,1.13,3.62,1.7,5.43.14.46.26.92.42,1.38.09.24.24.44.56.43,1.31-.02,2.62-.03,3.93-.03.96,0,1.91.05,2.87.08.96.02,1.93.1,2.88.04,1.14-.07,2.27.06,3.41,0,.48-.02.96-.06,1.51-.1.12,2.17-.13,4.36-.09,6.53-.77.34-1.49.2-2.19.2-2.67,0-5.33-.04-8-.06-.86,0-1.71.02-2.68.04.15.68.25,1.27.42,1.84.43,1.42.91,2.83,1.35,4.26.52,1.69.98,3.4,1.54,5.08.54,1.6,1.03,3.22,1.49,4.85.42,1.48.98,2.93,1.43,4.4.4,1.28.71,2.58,1.13,3.85.29.88.43,1.83,1.03,2.59.06.08.09.18.12.28.18.53-.03.86-.59.86-.53,0-1.07-.07-1.6-.07-1.04-.01-2.07-.01-3.11,0-.23,0-.45.07-.68.1-.53.06-.89-.19-1.06-.73-.41-1.36-.81-2.71-1.23-4.06-.13-.43-.3-.86-.48-1.28-.35-.82-.52-1.68-.7-2.54-.06-.3-.12-.62-.28-.86-.41-.61-.41-1.34-.66-1.99-.16-.4-.23-.82-.35-1.24-.06-.22-.18-.43-.19-.66-.05-.8-.43-1.49-.66-2.23-.25-.8-.45-1.6-.69-2.4-.6-1.99-1.21-3.97-1.8-5.96-.33-1.11-.63-2.23-.92-3.35-.16-.63-.21-.71-.84-.74-1.03-.05-2.05-.12-3.08-.12-1.66,0-3.33.07-4.99.09-1.01,0-2.01-.04-3.02-.05-1.51-.02-3.02-.05-4.53-.04-1.1,0-2.21.07-3.31.07-1.14,0-2.28-.06-3.42-.07-2.39-.02-4.77-.01-7.16-.02-.94,0-1.88.02-2.82,0-.99-.03-1.1.04-1.38,1-.4,1.41-.83,2.81-1.23,4.22-.52,1.8-1.01,3.61-1.53,5.41-.53,1.82-1.11,3.63-1.63,5.45-.25.87-.38,1.78-.63,2.66-.4,1.39-.88,2.75-1.27,4.14-.36,1.31-.64,2.65-.96,3.98-.08.32-.17.64-.23.96-.1.5-.44.64-.89.65-1.42.01-2.84.04-4.26.05-.67,0-.91-.39-.66-1,.12-.3.18-.62.27-.94.15-.53.3-1.06.43-1.6.25-1.03.49-2.06.75-3.08.1-.42.26-.82.37-1.23.52-1.86.89-3.76,1.58-5.58.27-.7.37-1.46.58-2.19.28-.94.59-1.88.88-2.82.12-.39.22-.78.34-1.17.15-.45.32-.9.48-1.35.05-.14.15-.29.15-.43,0-1.2.59-2.23.95-3.32.29-.87.58-1.73.81-2.61.06-.25-.1-.56-.19-.96ZM14.04,53.76c.15,1.95.29,3.9.44,5.84.03.4.04.81.12,1.2.17.87.39,1.72.55,2.59.36,1.98.58,3.99,1.27,5.91.51,1.4.79,2.88,1.45,4.24.44.88.8,1.8,1.21,2.69.34.73.6,1.52,1.08,2.15.92,1.23,1.61,2.62,2.58,3.83.89,1.12,1.7,2.29,2.76,3.28.97.91,1.98,1.77,3.01,2.62,1.2.98,2.46,1.83,3.91,2.35.83.3,1.59.74,2.43,1.02,1.34.44,2.69.45,4.04.53.83.05,1.66-.05,2.49-.04.54,0,1.11.2,1.53-.34.04-.05.14-.05.21-.07.65-.16,1.34-.22,1.94-.49,1.12-.5,2.28-.96,3.26-1.74.34-.27.76-.43,1.07-.72,1.22-1.17,2.42-2.37,3.62-3.56.14-.14.31-.27.43-.43.73-.9,1.48-1.79,2.17-2.72,1.15-1.54,2.04-3.25,2.89-4.97.43-.86.79-1.74,1.16-2.63.67-1.64,1.41-3.25,1.94-4.94.56-1.8.91-3.67,1.35-5.5.44-1.82.67-3.67.91-5.51.23-1.81.41-3.63.56-5.45.14-1.61.25-3.23.29-4.85.03-1.26-.08-2.52-.1-3.78-.03-1.67-.11-3.34-.36-5-.09-.6-.18-1.2-.28-1.8-.22-1.44-.38-2.9-.7-4.33-.28-1.25-.74-2.46-1.12-3.69-.42-1.37-.88-2.73-1.53-4.02-.56-1.1-1.08-2.22-1.66-3.31-.5-.94-1.1-1.82-1.57-2.78-.45-.92-1.02-1.75-1.66-2.52-1.13-1.36-2.3-2.7-3.51-3.99-1.16-1.23-2.35-2.44-3.9-3.21-.56-.28-1.13-.55-1.66-.88-1.79-1.11-3.8-1.45-5.85-1.69-.2-.02-.4-.02-.6-.04-1.51-.12-3.01-.13-4.51.23-1.72.42-3.21,1.33-4.71,2.19-.76.43-1.43,1.03-2.15,1.53-1.19.83-2.19,1.85-3.18,2.89-.86.91-1.53,1.94-2.27,2.94-1.57,2.12-2.93,4.37-4.05,6.75-.49,1.05-.95,2.12-1.36,3.21-.35.94-.63,1.92-.92,2.88-.37,1.26-.75,2.52-1.06,3.8-.31,1.25-.57,2.51-.82,3.77-.22,1.17-.46,2.34-.58,3.51-.2,1.96-.35,3.92-.43,5.89-.1,2.37-.1,4.75-.15,7.12ZM338.13,61.92c-.07-.38-.1-.62-.17-.86-.05-.19-.17-.37-.22-.57-.21-.83-.41-1.67-.63-2.5-.17-.63-.36-1.26-.56-1.88-.19-.6-.42-1.19-.61-1.79-.43-1.4-.84-2.81-1.26-4.22-.66-2.2-1.32-4.4-1.98-6.61-.55-1.82-1.09-3.63-1.64-5.44-.11-.36-.3-.7-.41-1.06-.31-1.02-.59-2.04-.88-3.06-.51-1.75-1.01-3.5-1.52-5.25-.19-.66-.37-1.32-.57-1.97-.26-.87-.54-1.74-.81-2.61-.23-.75-.45-1.5-.69-2.25-.18-.55-.4-1.09-.57-1.64-.28-.91-.52-1.84-.79-2.76-.42-1.45-.84-2.91-1.28-4.36-.04-.14-.19-.26-.41-.53-4.96,16.52-9.88,32.88-14.83,49.37.81,0,1.52,0,2.24,0,.57-.01,1.15-.08,1.72-.07.83.02,1.65.11,2.48.13,1.05.03,2.11-.07,3.15.04,1.11.11,2.19-.14,3.31,0,1.01.13,2.07-.12,3.11.05.12.02.26-.02.38-.01.78.08,1.53-.14,2.32-.09,1.46.1,2.93.1,4.39.09,1.82,0,3.64-.06,5.46-.1.37,0,.75-.03,1.27-.06ZM204.5,61.66c-.16-.49-.31-.86-.41-1.24-.2-.76-.37-1.53-.56-2.29-.13-.51-.26-1.02-.43-1.52-.27-.81-.58-1.61-.84-2.42-.44-1.4-.85-2.8-1.27-4.21-.49-1.65-.95-3.3-1.44-4.95-.2-.68-.49-1.33-.69-2-.39-1.36-.69-2.73-1.11-4.08-.29-.93-.7-1.82-.91-2.79-.23-1.08-.66-2.13-.99-3.19-.16-.51-.28-1.02-.44-1.53-.23-.72-.49-1.44-.72-2.16-.3-.96-.58-1.93-.87-2.89-.2-.68-.41-1.35-.6-2.03-.24-.85-.46-1.7-.72-2.54-.22-.72-.53-1.41-.75-2.12-.15-.48-.17-.99-.31-1.47-.5-1.72-1.03-3.43-1.56-5.14-.04-.14-.2-.25-.37-.45-.12.25-.22.39-.26.55-.18.69-.31,1.38-.51,2.06-.36,1.18-.78,2.34-1.14,3.52-.29.94-.52,1.89-.8,2.83-.53,1.77-1.16,3.5-1.6,5.31-.43,1.79-1.1,3.52-1.64,5.28-.27.87-.47,1.75-.73,2.62-.34,1.14-.73,2.26-1.07,3.4-.53,1.77-1.01,3.55-1.55,5.31-.58,1.91-1.21,3.8-1.79,5.71-.62,2.03-1.19,4.07-1.79,6.1-.53,1.77-1.07,3.53-1.6,5.29-.08.28-.11.57-.18.93,5,.03,9.89.09,14.77.09,4.91,0,9.83.16,14.86.03Z" fill="currentColor"/>
    </g>
  </g>
</symbol>
</svg>